<svg width="442" height="117" viewBox="0 0 442 117" fill="none" xmlns="http://www.w3.org/2000/svg">
<path d="M195.897 0L195.742 15.3701C195.742 15.3701 181.083 15.7313 182.083 22.5691C182.083 22.5691 182.894 28.7791 190.793 44.2523C190.793 44.2523 200.105 61.3856 180.074 70.0554C174.317 72.165 168.273 73.3917 162.147 73.6937L161 59.0633C161 59.0633 176.021 59.1321 175.383 50.7977C174.633 41.4054 165.182 27.3341 165.036 21.0209C164.984 16.342 167.234 1.58259 195.897 0Z" fill="#FF5B05"/>
<path d="M199.769 11.3448L198.424 23.8765L218.179 23.5324L212.04 70.2618L224.854 70.1414L231.217 23.7818L250.861 23.6872L252.214 11.0695L199.769 11.3448Z" fill="#FF5B05"/>
<path d="M275.221 10.1922L260.846 10.2352L233.321 64.3099L245.299 68.6104L249.179 60.19L272.66 60.3362L278.273 83L292.07 78.7855L275.221 10.1922ZM255.638 49.0259L264.959 29.7338L265.761 29.8198L270.073 48.742L255.638 49.0259Z" fill="#FF5B05"/>
<path d="M333.107 55.6143L331.676 68.9201L288.655 68.6965L286.741 68.6879L287.414 63.6563L294.588 10.0718L307.859 9.73639L301.65 55.4939L333.107 55.6143Z" fill="#FF5B05"/>
<path d="M381.344 55.1584L379.922 68.4642L336.893 68.2406L334.978 68.232L335.651 63.2004L342.825 9.60736L356.096 9.28052L349.888 55.038L381.344 55.1584Z" fill="#FF5B05"/>
<path d="M435.006 17.3655C424.779 6.02072 405.894 6.38197 392.727 18.1568C379.559 29.9316 377.257 48.6733 387.484 60.0094C397.711 71.3456 416.647 70.9929 429.737 59.2181C442.827 47.4433 445.241 28.7017 435.006 17.3655ZM421.95 50.5569C414.371 57.3689 403.428 57.5667 397.513 51.0213C391.597 44.476 392.96 33.63 400.539 26.818C408.119 20.006 419.07 19.8082 424.986 26.3622C430.901 32.9162 429.539 43.7535 421.95 50.5569Z" fill="#FF5B05"/>
<path d="M161 115.324V85.9651H180.502V91.1294H167.228V98.0151H179.208V103.179H167.228V115.324H161Z" fill="#FF5B05"/>
<path d="M185.151 115.324V93.2726H191.094V97.1544H191.327C191.64 95.9238 192.353 94.8312 193.354 94.0472C194.299 93.3432 195.452 92.971 196.631 92.9885C196.942 92.9885 197.27 92.9885 197.623 93.0488C197.94 93.0766 198.255 93.1284 198.564 93.2037V98.6349C198.17 98.5286 197.769 98.4509 197.365 98.4025C196.905 98.3372 196.441 98.3027 195.976 98.2992C195.134 98.2854 194.303 98.4869 193.561 98.8845C192.869 99.2593 192.293 99.816 191.896 100.494C191.481 101.22 191.27 102.043 191.284 102.878V115.359L185.151 115.324Z" fill="#FF5B05"/>
<path d="M205.774 90.4322C204.907 90.4482 204.067 90.1237 203.437 89.5284C203.129 89.2541 202.883 88.917 202.716 88.5399C202.55 88.1628 202.466 87.7544 202.471 87.3422C202.468 86.9295 202.553 86.5209 202.721 86.1438C202.889 85.7667 203.136 85.4299 203.445 85.156C204.082 84.5729 204.915 84.2494 205.779 84.2494C206.643 84.2494 207.475 84.5729 208.112 85.156C208.421 85.4286 208.667 85.7639 208.835 86.1395C209.003 86.5151 209.089 86.9223 209.086 87.3336C209.09 87.7476 209.005 88.1575 208.837 88.536C208.669 88.9145 208.421 89.2529 208.112 89.5284C207.482 90.1245 206.642 90.4491 205.774 90.4322ZM202.695 115.324V93.2726H208.828V115.324H202.695Z" fill="#FF5B05"/>
<path d="M224.828 115.755C222.776 115.815 220.745 115.337 218.937 114.369C217.315 113.459 216.001 112.09 215.159 110.435C214.241 108.562 213.788 106.495 213.839 104.41C213.794 102.345 214.247 100.3 215.159 98.4455C215.997 96.782 217.292 95.3908 218.894 94.4346C220.613 93.4511 222.57 92.957 224.552 93.0058C225.942 92.9953 227.322 93.2284 228.632 93.6943C229.873 94.1476 231.002 94.8607 231.944 95.7859C232.924 96.7783 233.677 97.9704 234.152 99.2804C234.705 100.859 234.971 102.523 234.937 104.195V105.917H216.28V102.069H229.14C229.162 101.258 228.975 100.455 228.597 99.7366C228.22 99.0718 227.672 98.5193 227.01 98.1357C226.29 97.7401 225.477 97.5412 224.655 97.559C223.79 97.5433 222.937 97.7635 222.188 98.1959C221.487 98.6102 220.909 99.2046 220.515 99.9173C220.1 100.649 219.886 101.478 219.894 102.319V105.917C219.874 106.882 220.087 107.839 220.515 108.705C220.894 109.474 221.495 110.113 222.24 110.539C223.052 110.988 223.969 111.211 224.897 111.184C225.531 111.199 226.163 111.112 226.768 110.926C227.31 110.75 227.805 110.456 228.218 110.065C228.633 109.665 228.95 109.172 229.14 108.628L234.807 109.007C234.552 110.321 233.957 111.546 233.082 112.561C232.136 113.608 230.953 114.413 229.632 114.911C228.099 115.495 226.468 115.781 224.828 115.755Z" fill="#FF5B05"/>
<path d="M248.116 115.677C246.494 115.699 244.901 115.244 243.536 114.369C242.131 113.425 241.026 112.099 240.353 110.547C239.506 108.584 239.1 106.46 239.163 104.324C239.079 102.159 239.486 100.002 240.353 98.0151C241.049 96.4684 242.182 95.1581 243.614 94.2452C244.962 93.403 246.526 92.9666 248.116 92.9885C249.183 92.9534 250.243 93.1656 251.213 93.6082C251.982 93.9827 252.665 94.5099 253.223 95.1575C253.694 95.7069 254.089 96.3179 254.396 96.9737H254.585V85.9651H260.701V115.324H254.663V111.787H254.404C254.089 112.447 253.679 113.059 253.188 113.603C252.625 114.236 251.934 114.743 251.161 115.092C250.202 115.508 249.162 115.708 248.116 115.677ZM250.057 110.814C250.962 110.84 251.848 110.554 252.567 110.005C253.297 109.406 253.846 108.616 254.154 107.724C254.546 106.619 254.734 105.453 254.706 104.281C254.734 103.11 254.55 101.944 254.163 100.838C253.855 99.9585 253.305 99.183 252.576 98.6004C251.836 98.0764 250.951 97.7949 250.044 97.7949C249.137 97.7949 248.252 98.0764 247.513 98.6004C246.785 99.1946 246.24 99.9825 245.943 100.873C245.572 101.952 245.394 103.088 245.417 104.23C245.393 105.383 245.574 106.531 245.951 107.621C246.252 108.517 246.795 109.312 247.521 109.919C248.227 110.501 249.115 110.818 250.031 110.814H250.057Z" fill="#FF5B05"/>
<path d="M303.207 96.2162H296.91C296.812 95.4527 296.572 94.7142 296.203 94.0386C295.858 93.4138 295.395 92.8614 294.84 92.4118C294.266 91.9561 293.614 91.6063 292.917 91.379C292.156 91.1324 291.361 91.0103 290.562 91.0175C289.153 90.9872 287.768 91.38 286.586 92.145C285.404 92.9537 284.486 94.091 283.946 95.4157C283.287 97.0622 282.971 98.825 283.015 100.597C282.96 102.405 283.28 104.204 283.955 105.882C284.472 107.188 285.381 108.303 286.557 109.073C287.734 109.844 289.121 110.232 290.527 110.186C291.313 110.192 292.096 110.078 292.848 109.85C293.535 109.644 294.181 109.318 294.754 108.886C295.308 108.456 295.779 107.928 296.142 107.328C296.523 106.68 296.783 105.968 296.91 105.228H303.207C303.049 106.617 302.636 107.964 301.99 109.204C301.337 110.467 300.46 111.601 299.403 112.553C298.262 113.562 296.943 114.35 295.513 114.877C293.886 115.47 292.164 115.761 290.432 115.737C287.966 115.779 285.534 115.164 283.386 113.956C281.292 112.738 279.595 110.946 278.495 108.791C277.232 106.248 276.616 103.434 276.701 100.597C276.616 97.7612 277.238 94.9484 278.512 92.4118C279.624 90.2578 281.33 88.4659 283.429 87.2475C285.563 86.0512 287.976 85.4395 290.424 85.4744C292.037 85.4602 293.641 85.7043 295.176 86.1974C296.59 86.6473 297.909 87.3534 299.066 88.2804C300.203 89.2052 301.144 90.3462 301.835 91.6372C302.585 93.0607 303.05 94.6158 303.207 96.2162Z" fill="#FF5B05"/>
<path d="M314.713 102.577V115.324H308.58V85.9651H314.532V97.1544H314.791C315.253 95.9027 316.102 94.8298 317.214 94.0902C318.477 93.3072 319.947 92.9232 321.432 92.9885C322.838 92.9519 324.227 93.297 325.451 93.987C326.603 94.6546 327.533 95.6453 328.125 96.8359C328.798 98.2177 329.124 99.7419 329.074 101.277V115.324H322.941V102.413C323.019 101.265 322.652 100.131 321.915 99.246C321.54 98.8583 321.085 98.5561 320.582 98.3601C320.079 98.164 319.539 98.0786 319 98.1098C318.23 98.0952 317.469 98.279 316.792 98.6435C316.152 98.9977 315.632 99.5341 315.299 100.184C314.913 100.923 314.712 101.744 314.713 102.577Z" fill="#FF5B05"/>
<path d="M337.958 90.4322C337.091 90.4482 336.251 90.1237 335.621 89.5284C335.313 89.2541 335.067 88.917 334.9 88.5399C334.734 88.1628 334.65 87.7544 334.655 87.3422C334.649 86.9292 334.733 86.5198 334.902 86.1424C335.07 85.765 335.318 85.4284 335.629 85.156C336.266 84.5729 337.099 84.2494 337.963 84.2494C338.827 84.2494 339.659 84.5729 340.296 85.156C340.603 85.4276 340.849 85.7616 341.017 86.1356C341.186 86.5096 341.272 86.9151 341.27 87.325C341.274 87.739 341.189 88.1489 341.021 88.5274C340.852 88.9059 340.605 89.2443 340.296 89.5198C339.667 90.119 338.827 90.4468 337.958 90.4322ZM334.879 115.324V93.2726H341.012V115.324H334.879Z" fill="#FF5B05"/>
<path d="M356.9 115.755C354.857 115.812 352.838 115.312 351.06 114.309C349.445 113.365 348.141 111.971 347.308 110.298C346.411 108.457 345.964 106.431 346.006 104.384C345.959 102.327 346.405 100.287 347.308 98.4369C348.148 96.7686 349.45 95.3763 351.06 94.426C352.819 93.4292 354.818 92.9321 356.839 92.9886C358.607 92.9377 360.364 93.2941 361.971 94.03C363.388 94.6949 364.589 95.7439 365.437 97.0574C366.285 98.3708 366.746 99.8957 366.767 101.458H360.979C360.865 100.452 360.412 99.5144 359.694 98.7984C359.331 98.4558 358.903 98.1893 358.435 98.0148C357.966 97.8404 357.468 97.7615 356.969 97.7828C356.08 97.7653 355.209 98.0339 354.485 98.5488C353.734 99.1239 353.163 99.9 352.837 100.787C352.42 101.921 352.221 103.125 352.251 104.333C352.219 105.555 352.415 106.772 352.828 107.922C353.151 108.813 353.723 109.592 354.476 110.169C355.107 110.614 355.847 110.882 356.618 110.944C357.389 111.006 358.163 110.86 358.858 110.521C359.427 110.21 359.905 109.756 360.246 109.205C360.635 108.605 360.883 107.925 360.971 107.216H366.758C366.689 108.791 366.214 110.32 365.378 111.658C364.541 112.956 363.362 114.001 361.971 114.679C360.386 115.422 358.651 115.791 356.9 115.755Z" fill="#FF5B05"/>
<path d="M371.718 115.324V85.9651H377.842V115.324H371.718ZM377.273 108.972V101.639H378.135L385.208 93.2726H392.246L382.758 104.35H381.309L377.273 108.972ZM385.527 115.324L379.024 105.762L383.112 101.458L392.704 115.384L385.527 115.324Z" fill="#FF5B05"/>
<path d="M405.443 115.755C403.401 115.809 401.379 115.332 399.578 114.369C397.96 113.455 396.646 112.088 395.8 110.435C394.882 108.562 394.43 106.495 394.48 104.41C394.436 102.345 394.888 100.3 395.8 98.4455C396.641 96.7836 397.936 95.3931 399.535 94.4346C401.255 93.4511 403.212 92.957 405.193 93.0058C406.583 92.9953 407.964 93.2284 409.273 93.6943C410.514 94.1476 411.643 94.8607 412.585 95.7859C413.565 96.7783 414.318 97.9704 414.793 99.2804C415.346 100.859 415.612 102.523 415.578 104.195V105.917H396.921V102.069H409.859C409.857 101.251 409.643 100.448 409.238 99.7366C408.872 99.0731 408.336 98.5178 407.686 98.127C406.965 97.7315 406.153 97.5326 405.331 97.5504C404.466 97.5346 403.613 97.7549 402.864 98.1873C402.162 98.6016 401.584 99.196 401.191 99.9087C400.78 100.633 400.566 101.452 400.57 102.284V105.882C400.546 106.861 400.756 107.832 401.182 108.714C401.562 109.483 402.162 110.121 402.907 110.547C403.719 110.996 404.636 111.219 405.564 111.193C406.199 111.2 406.831 111.104 407.436 110.909C407.979 110.731 408.476 110.438 408.893 110.048C409.3 109.652 409.613 109.169 409.808 108.636L415.475 109.015C415.219 110.33 414.625 111.555 413.749 112.57C412.803 113.616 411.62 114.422 410.299 114.92C408.75 115.508 407.101 115.791 405.443 115.755Z" fill="#FF5B05"/>
<path d="M426.722 102.577V115.324H420.624V93.2726H426.463V97.1544H426.722C427.193 95.8974 428.058 94.8257 429.189 94.0989C430.442 93.3223 431.898 92.933 433.372 92.9799C434.775 92.9449 436.161 93.2899 437.383 93.9784C438.53 94.6567 439.456 95.6522 440.048 96.8446C440.71 98.2239 441.035 99.7399 440.997 101.269V115.324H434.864V102.413C434.941 101.267 434.57 100.135 433.829 99.2546C433.459 98.8665 433.009 98.5631 432.511 98.3655C432.012 98.1679 431.476 98.0806 430.94 98.1098C430.178 98.095 429.426 98.279 428.758 98.6435C428.129 99.0038 427.62 99.5392 427.291 100.184C426.92 100.928 426.725 101.746 426.722 102.577Z" fill="#FF5B05"/>
<path d="M104.347 24.9179C104.347 24.9179 82.9745 30.5904 79.0619 65.3874C78.8265 67.5714 78.7089 69.7847 78.65 71.954C78.4441 79.2535 76.2671 105.945 55.8949 115.795C55.8949 115.795 83.2687 118.858 104.141 102.486C109.542 98.3626 113.804 92.942 116.531 86.7309C119.258 80.5198 120.36 73.7211 119.733 66.9704C118.791 58.044 114.614 47.6225 103.67 37.113C103.67 37.113 98.4339 31.8802 104.347 24.9179Z" fill="#FF5B05"/>
<path d="M0 70.4589C0 70.4589 11.179 54.1011 29.6537 54.0864C34.268 54.0939 38.8133 55.2039 42.9082 57.3233C47.0032 59.4426 50.5285 62.5096 53.1884 66.2669C58.2925 73.4197 62.9994 85.1458 60.1753 102.911C60.1753 102.911 76.6937 87.3444 68.2947 56.6808C66.5388 49.9548 62.7178 43.9437 57.3658 39.4875C51.9238 35.0001 45.0567 32.5892 37.9938 32.6864C33.0092 32.7517 28.0949 33.8683 23.5745 35.9626C19.0541 38.057 15.0301 41.0816 11.7673 44.8375C5.37034 52.0186 1.27261 60.9407 0 70.4589Z" fill="#FF5B05"/>
<path d="M8.60487 73.1559C8.60487 73.1559 48.0108 68.3336 50.8202 109.477C50.8202 109.477 59.6457 81.0271 42.083 67.7766C42.083 67.7766 27.1679 56.0066 8.60487 73.1559Z" fill="#FF5B05"/>
<path d="M125.852 23.4521C127.399 22.1134 128.648 20.4676 129.519 18.6199C130.39 16.7723 130.865 14.7637 130.912 12.7228C130.912 12.7228 131.78 6.69851 124.248 0C124.248 0 126.793 6.83043 122.498 8.17892C122.198 5.93837 121.101 3.87975 119.405 2.37838C117.709 0.87702 115.529 0.032925 113.261 0C113.261 0 119.306 5.76042 116.497 7.90043C116.497 7.90043 114.482 8.31084 112.599 3.89891C111.628 1.62699 106.848 0.718221 104.832 0.9674C101.724 1.4554 98.9168 3.10019 96.9777 5.56988C94.6242 8.28153 95.6685 12.3563 97.9338 14.8188C99.9609 16.8345 102.558 18.1847 105.377 18.6884C106.721 18.966 108.082 19.1569 109.451 19.26C110.801 19.166 112.157 19.2597 113.481 19.5385C113.788 19.7741 114.033 20.0807 114.194 20.4317C114.356 20.7828 114.429 21.1678 114.407 21.5533C114.385 21.9388 114.269 22.3132 114.07 22.6441C113.87 22.975 113.592 23.2523 113.261 23.4521C112.144 23.9055 111.19 24.6836 110.524 25.685C109.858 26.6863 109.509 27.8645 109.525 29.066C109.524 30.1117 109.772 31.1426 110.248 32.0749C110.723 33.0071 111.413 33.8143 112.26 34.4306C114.07 35.7352 115.202 35.0902 117.203 34.8704C117.543 34.8068 117.893 34.8218 118.226 34.9141C118.56 35.0064 118.868 35.1737 119.126 35.4029C119.385 35.6322 119.587 35.9174 119.718 36.2367C119.848 36.556 119.904 36.9009 119.88 37.2449C119.88 37.2449 119.203 43.2838 121.498 43.0053C123.792 42.7268 130.029 37.9191 127.205 30.7809C127.205 30.7809 123.837 27.4243 126.793 27.2924C128.198 27.0649 129.635 27.1551 131 27.5562C131 27.5562 131.103 24.5221 125.852 23.4521Z" fill="#FF5B05"/>
</svg>
